<svg width="192" height="96" viewBox="0 0 192 96" fill="none" xmlns="http://www.w3.org/2000/svg">
<path d="M22.218 67.2C19.6153 67.2 17.5887 66.4747 16.138 65.024C14.6873 63.616 13.962 61.8667 13.962 59.776C13.962 59.1787 14.0047 58.5813 14.09 57.984C14.218 57.344 14.41 56.704 14.666 56.064C15.2633 54.4853 16.1593 53.0987 17.354 51.904C18.5913 50.6667 20.0633 49.6213 21.77 48.768C22.6233 48.384 23.754 48.064 25.162 47.808C26.57 47.5093 27.8073 47.4027 28.874 47.488C29.2153 47.5307 29.386 47.6373 29.386 47.808C29.386 47.936 29.2793 48 29.066 48C26.89 48 24.8847 48.6187 23.05 49.856C21.2153 51.0507 19.722 52.48 18.57 54.144C17.8447 55.2107 17.2473 56.384 16.778 57.664C16.3513 58.9013 16.138 60.0747 16.138 61.184C16.138 62.5067 16.522 63.6373 17.29 64.576C18.058 65.5573 19.338 66.048 21.13 66.048C22.7513 66.048 24.3727 65.7067 25.994 65.024C27.658 64.384 29.1513 63.5307 30.474 62.464C33.3753 60.2453 35.9353 57.5573 38.154 54.4C40.4153 51.2427 42.6127 48.1067 44.746 44.992C46.41 42.6027 48.138 40.3413 49.93 38.208C51.7647 36.032 53.4927 34.176 55.114 32.64C56.7353 31.0613 58.1007 29.9733 59.21 29.376L58.058 29.184C57.7593 29.0987 57.3113 29.0347 56.714 28.992C56.1593 28.9493 55.5193 28.928 54.794 28.928C53.5993 28.928 52.2127 29.0987 50.634 29.44C49.098 29.7387 47.562 30.3573 46.026 31.296C44.49 32.2347 43.1033 33.6213 41.866 35.456C41.226 36.4373 40.906 37.5467 40.906 38.784C40.906 39.552 41.098 40.2347 41.482 40.832C41.9087 41.4293 42.6127 41.728 43.594 41.728C43.7647 41.728 43.9353 41.728 44.106 41.728C44.3193 41.6853 44.5113 41.6427 44.682 41.6C44.7247 41.6 44.746 41.6213 44.746 41.664C44.746 41.92 44.5113 42.1333 44.042 42.304C43.8713 42.3467 43.7007 42.3893 43.53 42.432C43.3593 42.432 43.1887 42.432 43.018 42.432C41.4393 42.432 40.33 41.9413 39.69 40.96C39.05 39.9787 38.73 38.8907 38.73 37.696C38.73 35.9467 39.178 34.496 40.074 33.344C41.738 31.0827 43.7007 29.6107 45.962 28.928C48.266 28.2453 50.5273 27.904 52.746 27.904C54.3247 27.904 55.818 27.9893 57.226 28.16C58.6767 28.288 59.9353 28.352 61.002 28.352C62.41 28.352 63.754 28.224 65.034 27.968C66.314 27.6693 67.21 27.1147 67.722 26.304C68.0207 26.5173 68.17 26.88 68.17 27.392C68.17 27.9467 67.8927 28.544 67.338 29.184C66.7833 29.7813 65.7807 30.08 64.33 30.08C63.7753 30.08 63.1353 30.0373 62.41 29.952C61.7273 29.824 60.9593 29.696 60.106 29.568C59.338 30.208 58.4633 31.104 57.482 32.256C56.5433 33.408 55.6047 34.6453 54.666 35.968C53.7273 37.2907 52.8953 38.528 52.17 39.68C51.4447 40.832 50.89 41.728 50.506 42.368C48.586 45.568 46.6447 48.5973 44.682 51.456C42.762 54.272 40.714 56.7893 38.538 59.008C36.4047 61.2267 34.0153 63.0187 31.37 64.384C30.218 65.024 28.7673 65.6427 27.018 66.24C25.3113 66.88 23.7113 67.2 22.218 67.2ZM58.737 64.064C57.841 64.064 57.201 63.8293 56.817 63.36C56.433 62.848 56.241 62.208 56.241 61.44C56.241 60.288 56.6463 58.9867 57.457 57.536C58.2677 56.0427 59.313 54.4853 60.593 52.864C61.9157 51.2427 63.281 49.6427 64.689 48.064C66.1397 46.4853 67.505 45.0347 68.785 43.712C68.145 43.712 67.441 43.8827 66.673 44.224C65.9477 44.5653 65.201 44.9707 64.433 45.44C63.281 46.208 62.0223 47.232 60.657 48.512C59.2917 49.792 57.9263 51.1573 56.561 52.608C55.1957 54.0587 53.8943 55.488 52.657 56.896C51.6757 58.048 50.8863 59.008 50.289 59.776C49.7343 60.544 49.2437 61.248 48.817 61.888C48.433 62.4853 48.0063 63.168 47.537 63.936C46.8543 63.936 46.513 63.5307 46.513 62.72C46.513 61.8667 46.7903 60.8427 47.345 59.648C47.857 58.4533 48.305 57.5147 48.689 56.832C49.7983 54.9547 51.057 52.992 52.465 50.944C53.9157 48.8533 55.2597 47.0187 56.497 45.44C57.137 44.5867 57.8197 43.968 58.545 43.584C59.2703 43.1573 59.889 42.9013 60.401 42.816C60.913 42.688 61.169 42.624 61.169 42.624C60.913 43.008 60.3797 43.8187 59.569 45.056C58.7583 46.2933 57.8197 47.744 56.753 49.408C55.6863 51.072 54.5983 52.7573 53.489 54.464C55.2383 52.4587 57.1157 50.5173 59.121 48.64C61.1263 46.72 63.0463 45.1627 64.881 43.968C65.4357 43.584 66.0117 43.264 66.609 43.008C67.2063 42.752 67.825 42.624 68.465 42.624C69.617 42.624 70.193 43.072 70.193 43.968C70.193 44.6507 69.7877 45.4613 68.977 46.4C67.9957 47.552 66.929 48.832 65.777 50.24C64.625 51.648 63.5157 53.0773 62.449 54.528C61.425 55.9787 60.5717 57.3227 59.889 58.56C59.249 59.7973 58.929 60.8 58.929 61.568C58.929 61.9947 59.0357 62.3147 59.249 62.528C59.505 62.6987 59.7183 62.784 59.889 62.784C60.529 62.784 61.233 62.528 62.001 62.016C62.8117 61.504 63.5797 60.9067 64.305 60.224C65.073 59.4987 65.7343 58.816 66.289 58.176C66.8863 57.536 67.2703 57.1093 67.441 56.896C67.6117 56.896 67.697 57.024 67.697 57.28C67.697 57.664 67.6117 57.9627 67.441 58.176C66.8437 58.816 66.0543 59.6053 65.073 60.544C64.0917 61.4827 63.0463 62.3147 61.937 63.04C60.8277 63.7227 59.761 64.064 58.737 64.064ZM72.3015 64.448C70.3388 64.448 68.9522 64.0213 68.1415 63.168C67.3308 62.3147 66.9255 61.1627 66.9255 59.712C66.9255 58.304 67.3095 56.832 68.0775 55.296C68.8882 53.7173 69.8908 52.224 71.0855 50.816C71.8108 49.9627 72.7068 49.0667 73.7735 48.128C74.8402 47.1893 75.9922 46.3147 77.2295 45.504C78.4668 44.6507 79.6828 43.968 80.8775 43.456C82.1148 42.9013 83.2028 42.624 84.1415 42.624C84.6535 42.624 85.1228 42.752 85.5495 43.008C85.9762 43.2213 86.1895 43.712 86.1895 44.48C86.1895 45.5467 85.6775 46.5707 84.6535 47.552C83.6295 48.4907 82.4775 49.3653 81.1975 50.176C79.7468 51.1147 78.2322 51.904 76.6535 52.544C75.0748 53.184 73.7095 53.6747 72.5575 54.016C71.9175 55.04 71.4055 56.0853 71.0215 57.152C70.6375 58.2187 70.4455 59.264 70.4455 60.288C70.4455 61.3973 70.7015 62.1653 71.2135 62.592C71.7682 62.976 72.4082 63.168 73.1335 63.168C74.4562 63.168 75.6508 62.8693 76.7175 62.272C77.8268 61.632 78.8508 60.8213 79.7895 59.84C80.7282 58.8587 81.6242 57.8773 82.4775 56.896C82.6482 56.896 82.7335 57.024 82.7335 57.28C82.7335 57.664 82.6482 57.9627 82.4775 58.176C81.6242 59.1573 80.6855 60.1387 79.6615 61.12C78.6802 62.1013 77.5922 62.912 76.3975 63.552C75.2028 64.1493 73.8375 64.448 72.3015 64.448ZM73.3255 53.12C74.4348 52.736 75.7362 52.2027 77.2295 51.52C78.7655 50.8373 80.1095 50.0907 81.2615 49.28C81.5175 49.1093 81.9655 48.768 82.6055 48.256C83.2455 47.7013 83.8428 47.104 84.3975 46.464C84.9522 45.7813 85.2295 45.184 85.2295 44.672C85.2295 43.9893 84.8882 43.648 84.2055 43.648C83.4802 43.648 82.6482 43.968 81.7095 44.608C80.8135 45.248 80.0882 45.8027 79.5335 46.272C78.5095 47.2107 77.4428 48.256 76.3335 49.408C75.2242 50.56 74.2215 51.7973 73.3255 53.12ZM62.212 79.488C61.2733 79.488 60.42 79.36 59.652 79.104C59.3107 78.9333 58.9693 78.6987 58.628 78.4C58.244 78.1013 57.988 77.7173 57.86 77.248C58.3293 77.632 58.8627 77.9093 59.46 78.08C60.0573 78.2933 60.7827 78.3787 61.636 78.336C63.8973 78.336 66.0307 77.76 68.036 76.608C69.9987 75.4987 71.8547 74.0053 73.604 72.128C75.3533 70.2507 76.996 68.1813 78.532 65.92C80.068 63.6587 81.5187 61.3973 82.884 59.136C84.2493 56.832 85.5293 54.7413 86.724 52.864C87.5347 51.584 88.3667 50.2187 89.22 48.768C90.116 47.3173 91.076 45.8667 92.1 44.416H88.516L89.22 43.52H92.74C94.7453 40.704 96.9427 38.1013 99.332 35.712C101.764 33.3227 104.473 31.68 107.46 30.784C108.185 30.528 109.167 30.4 110.404 30.4C110.916 30.4 111.428 30.4427 111.94 30.528C112.452 30.5707 112.921 30.6773 113.348 30.848C113.732 31.0187 114.095 31.2533 114.436 31.552C114.777 31.8507 115.033 32.2347 115.204 32.704C114.308 31.9787 113.028 31.616 111.364 31.616C109.145 31.616 107.097 32.2347 105.22 33.472C103.385 34.7093 101.721 36.2453 100.228 38.08C98.7773 39.872 97.4547 41.6853 96.26 43.52H104.964C106.969 40.704 109.167 38.1013 111.556 35.712C113.988 33.3227 116.697 31.68 119.684 30.784C120.409 30.528 121.391 30.4 122.628 30.4C123.14 30.4 123.652 30.4427 124.164 30.528C124.676 30.5707 125.145 30.6773 125.572 30.848C125.956 31.0187 126.319 31.2533 126.66 31.552C127.001 31.8507 127.257 32.2347 127.428 32.704C126.532 31.9787 125.252 31.616 123.588 31.616C121.369 31.616 119.321 32.2347 117.444 33.472C115.609 34.7093 113.945 36.2453 112.452 38.08C111.001 39.872 109.679 41.6853 108.484 43.52H113.412L112.708 44.416H107.908C106.969 45.824 106.031 47.296 105.092 48.832C104.196 50.368 103.087 52.1813 101.764 54.272C100.868 55.68 99.7587 57.344 98.436 59.264C97.156 61.1413 95.7267 63.104 94.148 65.152C92.5693 67.2 90.884 69.1627 89.092 71.04C87.3 72.9173 85.4227 74.56 83.46 75.968C81.4973 77.4187 79.492 78.4427 77.444 79.04C76.6333 79.3387 75.6307 79.488 74.436 79.488C73.4973 79.488 72.644 79.36 71.876 79.104C71.5347 78.9333 71.1933 78.6987 70.852 78.4C70.468 78.1013 70.212 77.7173 70.084 77.248C70.5533 77.632 71.0867 77.9093 71.684 78.08C72.2813 78.2933 73.0067 78.3787 73.86 78.336C76.0787 78.336 78.1907 77.76 80.196 76.608C82.2013 75.4987 84.0787 74.0053 85.828 72.128C87.5773 70.2507 89.22 68.1813 90.756 65.92C92.292 63.6587 93.7427 61.3973 95.108 59.136C96.4733 56.832 97.7533 54.7413 98.948 52.864C99.7587 51.584 100.591 50.2187 101.444 48.768C102.34 47.3173 103.3 45.8667 104.324 44.416H95.684C94.7453 45.824 93.8067 47.296 92.868 48.832C91.972 50.368 90.8627 52.1813 89.54 54.272C88.644 55.68 87.5347 57.344 86.212 59.264C84.932 61.1413 83.5027 63.104 81.924 65.152C80.3453 67.2 78.66 69.1627 76.868 71.04C75.076 72.9173 73.1987 74.56 71.236 75.968C69.2733 77.4187 67.268 78.4427 65.22 79.04C64.4093 79.3387 63.4067 79.488 62.212 79.488ZM108.09 64.064C106.511 64.064 105.721 63.168 105.721 61.376C105.721 60.352 106.02 59.136 106.617 57.728C107.215 56.2773 108.111 54.7627 109.306 53.184C110.159 52.1173 111.204 50.9867 112.442 49.792C113.679 48.5547 115.023 47.3813 116.474 46.272C117.967 45.1627 119.482 44.2667 121.018 43.584C122.554 42.8587 124.047 42.496 125.498 42.496C126.138 42.496 126.586 42.6027 126.842 42.816C127.098 42.9867 127.268 43.1787 127.354 43.392C127.439 43.5627 127.439 43.6907 127.354 43.776C127.311 43.8613 127.247 43.8827 127.162 43.84C126.991 43.7547 126.65 43.712 126.138 43.712C124.602 43.712 122.767 44.4587 120.634 45.952C118.543 47.4027 116.474 49.3013 114.426 51.648C112.975 53.2693 111.78 54.8693 110.842 56.448C109.903 57.984 109.284 59.264 108.986 60.288C108.9 60.6293 108.858 60.928 108.858 61.184C108.858 61.7813 109.092 62.08 109.562 62.08C109.86 62.08 110.266 61.952 110.778 61.696C111.29 61.3973 111.951 60.9067 112.762 60.224C114.042 59.1147 115.3 57.8133 116.538 56.32C117.818 54.8267 119.076 53.312 120.314 51.776C121.551 50.1973 122.746 48.7467 123.898 47.424C125.092 46.1013 126.223 45.0987 127.29 44.416C128.655 43.52 129.594 43.008 130.106 42.88C130.66 42.752 131.108 42.6667 131.45 42.624C131.236 42.88 130.767 43.4773 130.042 44.416C129.316 45.3547 128.548 46.3573 127.738 47.424C126.927 48.448 126.266 49.3013 125.753 49.984C124.986 51.0933 124.154 52.288 123.258 53.568C122.404 54.848 121.615 56.064 120.89 57.216C120.207 58.3253 119.738 59.2427 119.482 59.968C119.268 60.6933 119.162 61.2267 119.162 61.568C119.162 62.2507 119.439 62.592 119.994 62.592C120.378 62.592 120.826 62.4427 121.338 62.144C121.892 61.8027 122.447 61.4187 123.002 60.992C123.727 60.3947 124.41 59.776 125.05 59.136C125.69 58.4533 126.351 57.7067 127.034 56.896C127.204 56.896 127.29 57.024 127.29 57.28C127.29 57.664 127.204 57.9627 127.034 58.176C126.479 58.816 125.796 59.52 124.986 60.288C124.218 61.056 123.45 61.7387 122.682 62.336C122.127 62.8053 121.487 63.2107 120.762 63.552C120.036 63.8933 119.332 64.064 118.65 64.064C117.668 64.064 116.986 63.8293 116.602 63.36C116.218 62.8907 116.026 62.2933 116.026 61.568C116.026 60.7147 116.218 59.7973 116.602 58.816C116.986 57.792 117.412 56.832 117.882 55.936C117.327 56.6187 116.623 57.4507 115.77 58.432C114.916 59.3707 114.148 60.16 113.466 60.8C112.527 61.6533 111.631 62.4213 110.778 63.104C109.924 63.744 109.028 64.064 108.09 64.064ZM128.413 64.256C127.431 64.256 126.748 64 126.364 63.488C125.938 62.976 125.724 62.336 125.724 61.568C125.724 60.8 125.874 59.9893 126.172 59.136C126.471 58.24 126.791 57.4293 127.133 56.704C127.901 55.424 128.733 54.144 129.629 52.864C130.567 51.5413 131.57 50.176 132.637 48.768C133.789 47.232 135.111 45.568 136.605 43.776C138.098 41.984 139.698 40.2347 141.405 38.528C143.154 36.7787 144.989 35.2427 146.909 33.92C148.829 32.5973 150.791 31.6373 152.797 31.04C153.181 30.912 153.629 30.8053 154.141 30.72C154.695 30.6347 155.25 30.592 155.805 30.592C156.274 30.592 156.722 30.6347 157.149 30.72C157.618 30.7627 158.045 30.8693 158.429 31.04C158.77 31.2107 159.111 31.4453 159.453 31.744C159.794 32 160.007 32.384 160.093 32.896C159.666 32.512 159.154 32.2347 158.557 32.064C157.959 31.8507 157.234 31.744 156.381 31.744C154.674 31.744 153.095 32.128 151.645 32.896C150.194 33.6213 148.807 34.6027 147.485 35.84C146.205 37.0347 144.967 38.3573 143.773 39.808C142.578 41.216 141.383 42.5813 140.189 43.904C138.482 45.824 136.882 47.744 135.389 49.664C133.895 51.584 132.701 53.3333 131.805 54.912C132.658 53.8453 133.618 52.7147 134.685 51.52C135.751 50.3253 136.797 49.216 137.821 48.192C138.845 47.1253 139.698 46.2933 140.381 45.696C141.319 44.8427 142.237 44.16 143.133 43.648C144.029 43.0933 144.946 42.7733 145.885 42.688C147.421 42.6027 148.189 43.4987 148.189 45.376C148.189 46.3573 147.89 47.5733 147.293 49.024C146.738 50.432 145.842 51.9467 144.605 53.568C143.794 54.6347 142.749 55.7867 141.469 57.024C140.231 58.2187 138.866 59.3707 137.373 60.48C135.922 61.5893 134.429 62.5067 132.893 63.232C131.357 63.9147 129.863 64.256 128.413 64.256ZM128.989 63.36C130.61 63.232 132.317 62.3787 134.109 60.8C135.943 59.2213 137.863 57.3013 139.869 55.04C141.362 53.376 142.599 51.776 143.581 50.24C144.605 48.6613 145.266 47.3813 145.565 46.4C145.607 46.272 145.628 46.1013 145.628 45.888C145.628 45.5467 145.543 45.248 145.373 44.992C145.202 44.6933 144.925 44.544 144.541 44.544C144.199 44.544 143.73 44.6933 143.133 44.992C142.578 45.2907 141.874 45.8027 141.021 46.528C140.295 47.1253 139.314 48.0213 138.077 49.216C136.882 50.368 135.666 51.6267 134.429 52.992C134.045 53.4187 133.49 54.016 132.765 54.784C132.082 55.552 131.357 56.4053 130.589 57.344C129.863 58.2827 129.245 59.2 128.733 60.096C128.221 60.992 127.965 61.7813 127.965 62.464C127.965 62.7627 128.071 62.9973 128.285 63.168C128.498 63.296 128.733 63.36 128.989 63.36ZM148.73 64.192C146.596 64.192 145.529 63.2107 145.529 61.248C145.529 60.608 145.679 59.8613 145.977 59.008C146.276 58.1547 146.831 57.024 147.642 55.616C148.751 53.696 150.308 51.4347 152.314 48.832C154.362 46.2293 156.538 43.6907 158.842 41.216C160.847 38.9547 163.023 36.8853 165.37 35.008C167.759 33.088 170.234 31.7653 172.794 31.04C173.178 30.912 173.626 30.8053 174.138 30.72C174.65 30.6347 175.183 30.592 175.738 30.592C176.762 30.592 177.636 30.7413 178.362 31.04C178.703 31.2107 179.044 31.4453 179.386 31.744C179.727 32 179.962 32.384 180.09 32.896C179.62 32.512 179.087 32.2347 178.49 32.064C177.892 31.8507 177.167 31.744 176.314 31.744C174.095 31.744 171.962 32.4693 169.914 33.92C167.866 35.3707 165.818 37.248 163.77 39.552C161.764 41.8133 159.652 44.224 157.434 46.784C156.58 47.7653 155.642 48.9813 154.618 50.432C153.594 51.8827 152.612 53.3333 151.674 54.784C150.778 56.2347 150.052 57.472 149.498 58.496C149.199 58.9653 148.964 59.4773 148.794 60.032C148.666 60.544 148.602 60.9707 148.602 61.312C148.602 62.336 148.986 62.848 149.754 62.848C150.564 62.848 151.46 62.464 152.442 61.696C153.466 60.928 154.426 60.0747 155.322 59.136C156.26 58.1973 156.964 57.4507 157.434 56.896C157.604 56.896 157.69 57.024 157.69 57.28C157.69 57.664 157.604 57.9627 157.434 58.176C155.727 60.1387 154.148 61.632 152.698 62.656C151.29 63.68 149.967 64.192 148.73 64.192ZM162.302 64.448C160.339 64.448 158.952 64.0213 158.142 63.168C157.331 62.3147 156.925 61.1627 156.925 59.712C156.925 58.304 157.309 56.832 158.078 55.296C158.888 53.7173 159.891 52.224 161.086 50.816C161.811 49.9627 162.707 49.0667 163.774 48.128C164.84 47.1893 165.992 46.3147 167.23 45.504C168.467 44.6507 169.683 43.968 170.878 43.456C172.115 42.9013 173.203 42.624 174.142 42.624C174.654 42.624 175.123 42.752 175.55 43.008C175.976 43.2213 176.19 43.712 176.19 44.48C176.19 45.5467 175.678 46.5707 174.654 47.552C173.63 48.4907 172.478 49.3653 171.198 50.176C169.747 51.1147 168.232 51.904 166.654 52.544C165.075 53.184 163.71 53.6747 162.558 54.016C161.918 55.04 161.406 56.0853 161.022 57.152C160.638 58.2187 160.446 59.264 160.446 60.288C160.446 61.3973 160.702 62.1653 161.214 62.592C161.768 62.976 162.408 63.168 163.134 63.168C164.456 63.168 165.651 62.8693 166.718 62.272C167.827 61.632 168.851 60.8213 169.79 59.84C170.728 58.8587 171.624 57.8773 172.478 56.896C172.648 56.896 172.734 57.024 172.734 57.28C172.734 57.664 172.648 57.9627 172.478 58.176C171.624 59.1573 170.686 60.1387 169.662 61.12C168.68 62.1013 167.592 62.912 166.398 63.552C165.203 64.1493 163.838 64.448 162.302 64.448ZM163.326 53.12C164.435 52.736 165.736 52.2027 167.23 51.52C168.766 50.8373 170.11 50.0907 171.262 49.28C171.518 49.1093 171.966 48.768 172.606 48.256C173.246 47.7013 173.843 47.104 174.398 46.464C174.952 45.7813 175.23 45.184 175.23 44.672C175.23 43.9893 174.888 43.648 174.206 43.648C173.48 43.648 172.648 43.968 171.71 44.608C170.814 45.248 170.088 45.8027 169.534 46.272C168.51 47.2107 167.443 48.256 166.334 49.408C165.224 50.56 164.222 51.7973 163.326 53.12Z" fill="url(#paint0_linear_312_1729)"/>
<defs>
<linearGradient id="paint0_linear_312_1729" x1="0" y1="60" x2="192" y2="60" gradientUnits="userSpaceOnUse">
<stop offset="0.046875" stop-color="#AE8625"/>
<stop offset="0.32202" stop-color="#F7EF8A"/>
<stop offset="0.671875" stop-color="#D2AC47"/>
<stop offset="0.933834" stop-color="#EDC967"/>
</linearGradient>
</defs>
</svg>
